<?xml version="1.0" encoding="UTF-8" standalone="no"?>
<!-- Created with Inkscape (http://www.inkscape.org/) -->

<svg
   version="1.1"
   id="svg1"
   width="2829.3333"
   height="2829.3333"
   viewBox="0 0 2829.3333 2829.3333"
   sodipodi:docname="profile.eps"
   xmlns:inkscape="http://www.inkscape.org/namespaces/inkscape"
   xmlns:sodipodi="http://sodipodi.sourceforge.net/DTD/sodipodi-0.dtd"
   xmlns="http://www.w3.org/2000/svg"
   xmlns:svg="http://www.w3.org/2000/svg">
  <defs
     id="defs1" />
  <sodipodi:namedview
     id="namedview1"
     pagecolor="#ffffff"
     bordercolor="#000000"
     borderopacity="0.25"
     inkscape:showpageshadow="2"
     inkscape:pageopacity="0.0"
     inkscape:pagecheckerboard="0"
     inkscape:deskcolor="#d1d1d1">
    <inkscape:page
       x="0"
       y="0"
       inkscape:label="1"
       id="page1"
       width="2829.3333"
       height="2829.3333"
       margin="0"
       bleed="0" />
  </sodipodi:namedview>
  <g
     id="g1"
     inkscape:groupmode="layer"
     inkscape:label="1">
    <g
       id="group-R5">
      <path
         id="path2"
         d="m 14781.2,1879.1 c 2564.6,92 4028.5,408.2 4028.5,408.2 -163.5,3917.7 -1015.1,5150.9 -2243.3,5444.1 -45.1,10.9 -90.7,20.2 -136.7,28.6 -0.6,-4.6 -1.6,-9.3 -3.7,-14 -374.6,-822 -749,-1644 -1123.5,-2466.1 -22.3,-48.7 -93.9,-6.4 -71.8,42 372.4,817.4 744.7,1634.7 1117.1,2452.1 -1110.1,183.1 -2038,334 -2253.6,368.7 89.7,-929.2 179.4,-1858.4 269,-2787.7 2.7,-27.4 -28.4,-46.5 -52.6,-40 -99,26.5 -197.9,53 -296.9,79.6 96.8,-107.7 193.6,-215.5 290.4,-323.2 64.8,-72.1 57.8,-92 31.8,-178.9 -302.3,-1012.8 -604.6,-2025.5 -907,-3038.2 448.9,0.5 873.2,8.4 1271.4,21.8 -0.8,3.4 -1.4,7 -1.4,11 0,386.3 0,772.5 0,1158.8 0,53.6 83.1,53.6 83.1,0 0,-386.3 0,-772.5 0,-1158.8 0,-2.9 -0.4,-5.5 -0.8,-8"
         style="fill:#546dbe;fill-opacity:1;fill-rule:nonzero;stroke:none"
         transform="matrix(0.13333333,0,0,-0.13333333,0,2829.3333)" />
      <path
         id="path3"
         d="m 14128.1,4486.8 c 49,164.2 98,328.4 147.1,492.6 -4.1,4.6 -8.2,9.1 -12.3,13.6 -47.6,53.1 -95.3,106.1 -142.9,159.1 -86.7,96.5 -173.5,193.1 -260.2,289.6 -179.7,173.2 -359.5,346.4 -539.3,519.6 -38.6,37.2 20.2,96 58.8,58.8 177,-170.5 354,-341.1 531,-511.6 121.5,-32.6 242.9,-65.2 364.4,-97.9 -87,901.7 -174,1803.4 -261,2705.1 -288.9,66.4 -577.8,132.8 -866.7,199.2 -73.8,-109.7 -171.2,-221.5 -281.4,-331.2 22.5,-12.5 34.7,-42.4 9.8,-63.4 -72.6,-61.4 -144.6,-123.4 -216.7,-185.3 0.4,-3.8 0.5,-7.7 -0.1,-11.9 -147.7,-959.4 -295.2,-1918.8 -442.5,-2878.3 -103.4,-673.5 -206.7,-1347 -309.5,-2020.5 -34.5,-225.5 -68.9,-451 -102.9,-676.5 -9.9,-65 -19.6,-129.9 -29.2,-194.9 -3.4,-22.7 -9.4,-64.7 -9.5,-65.8 0,-0.5 -0.2,-1 -0.2,-1.6 554.9,-21.2 1081.8,-30.8 1578.9,-31.2 0.2,3.5 0.6,7.1 1.8,10.9 64.6,216.4 129.1,432.7 193.7,649.1 196.3,657.5 392.6,1315 588.9,1972.5"
         style="fill:#546dbe;fill-opacity:1;fill-rule:nonzero;stroke:none"
         transform="matrix(0.13333333,0,0,-0.13333333,0,2829.3333)" />
      <path
         id="path4"
         d="m 9438.83,1952.9 c -9.65,65 -19.45,129.9 -29.3,194.9 -33.2,220 -66.72,439.9 -100.31,659.9 -101.41,664.4 -203.36,1328.9 -305.31,1993.2 -122.54,798.2 -245.28,1596.2 -368.05,2394.2 -59.06,36.6 -117.03,74.6 -172.7,115.2 -20.62,15.1 -21.6,39.6 -12.34,57.4 -391.37,250 -875.27,582.8 -1040.39,796.4 -70.27,-16.1 -140.59,-32.3 -210.9,-48.4 -87.03,-901.7 -173.98,-1803.4 -261.01,-2705.1 121.48,32.7 242.96,65.3 364.45,97.9 176.99,170.5 353.98,341.1 530.94,511.6 38.59,37.2 97.46,-21.6 58.82,-58.8 -179.8,-173.2 -359.57,-346.4 -539.29,-519.6 -121.64,-135.4 -243.28,-270.7 -364.89,-406.1 -16.79,-18.7 -33.63,-37.5 -50.46,-56.2 6.44,-21.6 12.93,-43.2 19.33,-64.8 303.44,-1016.5 606.92,-2033 910.35,-3049.4 1.14,-3.8 1.61,-7.4 1.76,-10.9 497.19,0.4 1024.02,10 1578.91,31.2 -0.04,0.6 -0.2,1.1 -0.2,1.6 -0.11,1.1 -6.09,43.1 -9.41,65.8"
         style="fill:#546dbe;fill-opacity:1;fill-rule:nonzero;stroke:none"
         transform="matrix(0.13333333,0,0,-0.13333333,0,2829.3333)" />
      <path
         id="path5"
         d="m 6981.56,4543.2 c -43.28,145 -86.52,289.8 -129.8,434.8 -9.03,30 22.07,54.1 39.8,73.9 47.66,53 95.32,106 142.97,159 55,61.3 110.04,122.5 165.04,183.7 -98.98,-26.6 -197.93,-53.1 -296.95,-79.6 -24.14,-6.5 -55.2,12.6 -52.58,40 89.61,928.8 179.22,1857.6 268.87,2786.4 -182.11,-37.4 -854.93,-190.3 -1911.33,-407.2 -76.49,-15.8 -155.16,-36 -235.24,-61 0.16,-0.5 0.39,-1 0.55,-1.6 84.53,-388.2 192.74,-772.3 304.38,-1153.4 167.93,-573.4 352.53,-1143.6 579.96,-1696.6 20.43,-49.5 -60.04,-70.9 -80.12,-22.1 -227.42,552.9 -412.77,1123 -580,1696.7 -110.94,380.4 -219.38,763.5 -303.83,1150.9 -1058.55,-370.8 -2334.3,-1635.4 -2489.73,-5359.8 0,0 1984.5,-428.8 5380.71,-433 -72.38,242.5 -144.73,485 -217.15,727.5 -195.2,653.8 -390.39,1307.6 -585.55,1961.4"
         style="fill:#546dbe;fill-opacity:1;fill-rule:nonzero;stroke:none"
         transform="matrix(0.13333333,0,0,-0.13333333,0,2829.3333)" />
      <path
         id="path6"
         d="m 12960.2,12657.6 c 230.2,245.9 422.7,518.7 580.5,804.7 -67.7,9.3 -129.2,24.8 -184.2,46.6 -96.9,-300.3 -228.5,-588.5 -396.3,-851.3"
         style="fill:#49464f;fill-opacity:1;fill-rule:nonzero;stroke:none"
         transform="matrix(0.13333333,0,0,-0.13333333,0,2829.3333)" />
      <path
         id="path7"
         d="m 7229.14,13502.7 c -65.04,-23.8 -138.2,-39.6 -220.35,-46.3 247.89,-474 590.9,-910.7 1045.98,-1247.4 -374.42,346.9 -655.28,785.2 -825.63,1293.7"
         style="fill:#49464f;fill-opacity:1;fill-rule:nonzero;stroke:none"
         transform="matrix(0.13333333,0,0,-0.13333333,0,2829.3333)" />
      <path
         id="path8"
         d="m 14751.6,15116.7 c -52.1,157.6 -136.1,269.2 -239.5,342.5 -3.5,0.2 -7.3,0.8 -11.1,2.1 -219.5,75 -429.2,75.2 -621.9,16.5 1,-50.2 5,-98.1 13.2,-141.1 -2.2,0.9 -4.1,1.9 -6.2,2.7 -2.4,-26.6 -31.1,-52.2 -62.3,-35.4 -48.3,26.1 -92.1,58.5 -132.3,95.5 -143.5,-76.6 -274.6,-187 -389.6,-323.4 -20,-23.7 -47.8,-14 -61.3,6.2 -43.6,-62.1 -83.3,-128.8 -118.4,-198.7 v 0 c 0,0.1 0,0.1 0,0.1 -179.8,212.7 -225,530.9 -265.9,858.6 -18.2,-21 -35.3,-42 -51.3,-62.9 1.4,-8.2 2.9,-16.5 4.3,-24.7 8.9,-52.4 -71.3,-74.9 -80.2,-22.1 -36.2,214.4 -74.8,430.2 -120.9,644.3 -106.6,-197.4 -232.2,-376 -376.8,-535.7 20.4,-6.5 39.2,-13.4 55.8,-20.9 116.9,-53.1 279.2,-156 308.1,-292.4 77.5,-366.3 -1236.1,-137.5 -1236.1,-137.5 -72,143.9 -61.7,250.9 -2.2,328 -44.9,-26.8 -90.2,-55.8 -135.5,-88.6 -4.4,-17.7 -8.8,-35.5 -13.3,-53.2 -13.1,-51.9 -93.3,-29.9 -80.1,22.1 102.9,406.9 183.3,822.9 204.4,1242.9 12.4,248.3 13,505.9 -44.3,749.3 -6.8,28.9 -17.3,80.3 -34.3,131.8 -131.1,22 -261.7,18.8 -388.1,-17.7 -10.4,-9.1 -20.8,-17.7 -31.2,-25.1 -86.4,-61.8 -179.1,-86.8 -280.3,-48.6 -58.4,-5.5 -106,10 -143,43.9 -1.7,0.4 -3.8,0.7 -5.3,1 -193.4,37.7 -376.2,53.2 -549.32,49.4 -101.17,-185.6 -179.65,-392.5 -203.87,-448.8 -193.71,-450.2 -359.06,-1069.9 -747.58,-1416 233.6,-54.4 397.82,-194.6 259.81,-470.4 0,0 -1313.63,-228.8 -1236.09,137.5 7.81,36.8 25.54,71.1 49.29,102.8 -61.56,-44.5 -125.31,-86 -190.9,-122.6 -27.73,-186.3 -98.39,-378 -278.04,-583.9 h -0.04 c -37.58,83 -81.88,162.4 -131.45,235.8 -14.45,-16.9 -39.14,-23.2 -57.07,-1.2 -102.5,125.9 -219.33,235.9 -352.38,314 -171.33,-58.9 -355.2,-86 -545.94,-82.7 -53.51,0.9 -53.63,84 0,83.1 5.63,-0.1 11.13,0.2 16.68,0.1 0.43,65.8 1.45,131.6 3.24,197.2 -257.61,-8.3 -487.11,-140.4 -590.7,-453.8 -176.48,-607.5 348.4,-1650.1 1042.03,-1664 40.28,-0.8 78.44,0.7 115.12,3.7 82.15,6.7 155.31,22.5 220.35,46.3 170.35,-508.5 451.21,-946.8 825.63,-1293.7 271.09,-251.1 591.09,-454.5 953.86,-601.8 5,-552.1 14.07,-1296.4 30.04,-1995.4 l 23.05,-541.6 c 167.07,-180.9 892.03,-385.4 1162.78,-459.9 9.2,38.8 70,38.8 80.2,-0.2 275.6,74.3 1054.7,279 1222,460.1 l -3.7,412.7 c -24.9,70.4 -46,141.7 -69.2,212.5 -41.2,125.5 -96.6,243.4 -171.7,358 -74.5,113.7 -159.6,224.4 -249.6,330.2 -77.5,91.1 -167.6,174.6 -267.6,249.3 -100.3,74.9 -211.2,139.6 -328,196 -131.1,63.4 -272.5,109.5 -416,149.9 -150.2,42.3 -303.99,76.6 -452.31,123.2 -146.56,45.9 -289.25,100.8 -439.92,137.4 -39.02,9.5 -79.84,19.3 -116.72,34.6 -1.29,116.9 -2.34,228.4 -3.32,333.2 340.2,-138.3 717.93,-227.4 1127.77,-260.7 6.6,9.6 17.4,16.4 32.6,16.5 918.9,2.6 1889.6,229.4 2501.3,965.6 16.1,19.4 37.5,16.5 52.2,3.9 86,102.9 165.3,211.6 237.7,325.1 167.8,262.8 299.4,551 396.3,851.3 55,-21.8 116.5,-37.3 184.2,-46.6 52.5,-7.2 108.4,-10.8 168.9,-9.6 693.6,13.9 1218.4,1056.5 1042,1664"
         style="fill:#f9aeaf;fill-opacity:1;fill-rule:nonzero;stroke:none"
         transform="matrix(0.13333333,0,0,-0.13333333,0,2829.3333)" />
      <path
         id="path9"
         d="m 8469.77,15778.1 c 31.83,115.6 67.69,227 114.57,327.5 -83.36,-104.3 -174.26,-202.7 -271.8,-294.3 -41.6,-39 -85.55,-79 -131.25,-118.7 19.22,10.3 38.01,19.6 55.78,27.7 57.5,26 139.88,46.3 232.7,57.8"
         style="fill:#f9aeaf;fill-opacity:1;fill-rule:nonzero;stroke:none"
         transform="matrix(0.13333333,0,0,-0.13333333,0,2829.3333)" />
      <path
         id="path10"
         d="m 11890.1,15788.5 c -12.9,82.9 -24.2,157.9 -24.2,210.3 -82.8,-110.5 -178.3,-183.1 -280.5,-246.6 75.9,21.1 160.9,32.4 246.2,35.5 19.5,0.7 39.1,0.9 58.5,0.8"
         style="fill:#f9aeaf;fill-opacity:1;fill-rule:nonzero;stroke:none"
         transform="matrix(0.13333333,0,0,-0.13333333,0,2829.3333)" />
      <path
         id="path11"
         d="m 11521.6,9622.9 c -0.2,4.2 -0.3,8.4 -0.4,12.6 -0.8,24.8 -1.6,49.5 -2.4,74.3 -0.1,2.7 -0.2,5.4 -0.2,8.1 -19.9,636.8 -31.1,1274.5 -32.8,1749.1 -421.9,-133.3 -875.6,-185.9 -1316.8,-187.2 -38.4,-0.1 -49.2,42.4 -32.6,66.7 -409.84,33.3 -787.57,122.4 -1127.77,260.7 0.98,-104.8 2.03,-216.3 3.32,-333.2 36.88,-15.3 77.7,-25.1 116.72,-34.6 150.67,-36.6 293.36,-91.5 439.92,-137.4 148.32,-46.6 302.11,-80.9 452.31,-123.2 143.5,-40.4 284.9,-86.5 416,-149.9 116.8,-56.4 227.7,-121.1 328,-196 100,-74.7 190.1,-158.2 267.6,-249.3 90,-105.8 175.1,-216.5 249.6,-330.2 75.1,-114.6 130.5,-232.5 171.7,-358 23.2,-70.8 44.3,-142.1 69.2,-212.5 l -1,130 c -0.2,3.3 -0.3,6.7 -0.4,10"
         style="fill:#f68395;fill-opacity:1;fill-rule:nonzero;stroke:none"
         transform="matrix(0.13333333,0,0,-0.13333333,0,2829.3333)" />
      <path
         id="path12"
         d="m 13249.4,14167.7 c -100.6,184.5 -263.7,287.9 -443,324.8 -463.2,95.4 -1034.8,-252.7 -917.4,-792.6 52,-239.3 156,-499.4 395.4,-582.6 291.3,-93.7 624.3,-62.5 822,176.9 14.5,17.5 27.7,36 40.1,55.1 139.7,213.9 232.9,580 102.9,818.4"
         style="fill:#f68395;fill-opacity:1;fill-rule:nonzero;stroke:none"
         transform="matrix(0.13333333,0,0,-0.13333333,0,2829.3333)" />
      <path
         id="path13"
         d="m 7796.13,14492.5 c -179.37,-36.9 -342.38,-140.3 -442.97,-324.8 -130,-238.4 -36.79,-604.5 102.82,-818.4 12.46,-19.1 25.66,-37.6 40.15,-55.1 197.74,-239.4 530.67,-270.6 822.03,-176.9 239.3,83.2 343.36,343.3 395.43,582.6 117.35,539.9 -454.29,888 -917.46,792.6"
         style="fill:#f68395;fill-opacity:1;fill-rule:nonzero;stroke:none"
         transform="matrix(0.13333333,0,0,-0.13333333,0,2829.3333)" />
      <path
         id="path14"
         d="m 14106.3,15702.2 c -37.9,58.4 -72.4,118.9 -104.2,180.8 -21.7,42.1 -42.6,84.7 -63,127.4 -19.8,-95.4 -52.3,-274.8 -59.1,-445.8 79.3,22.1 160.9,35.1 244.6,38 -3.5,23 -9.3,56.6 -18.3,99.6"
         style="fill:#39363d;fill-opacity:1;fill-rule:nonzero;stroke:none"
         transform="matrix(0.13333333,0,0,-0.13333333,0,2829.3333)" />
      <path
         id="path15"
         d="m 13415.7,15815 c -45.2,99.9 -83.5,201.1 -119,293.3 -15.4,40 -30.4,80.4 -45.3,120.9 -98.6,-189.4 -269.7,-341.8 -395.1,-486.9 40.9,-327.7 86.1,-645.9 265.9,-858.6 0,0 0,0 0,-0.1 v 0 c 35.1,69.9 74.8,136.6 118.4,198.7 -9.9,14.9 -12,35.4 2.5,52.5 114.3,135.6 245.1,246.6 388.1,326.6 -52.4,59.7 -97.9,127.5 -138.1,199.2 -28.6,47 -53.6,98.2 -77.4,154.4"
         style="fill:#39363d;fill-opacity:1;fill-rule:nonzero;stroke:none"
         transform="matrix(0.13333333,0,0,-0.13333333,0,2829.3333)" />
      <path
         id="path16"
         d="m 10361.7,17644.1 c -39.6,83.1 -38.9,217 -115.4,277.3 -128.3,101.1 -273.84,-83.4 -389.62,-295.8 173.12,3.8 355.92,-11.7 549.32,-49.4 -0.2,1.7 -0.5,3.2 -0.6,5 -17,17 -31.7,37.7 -43.7,62.9"
         style="fill:#39363d;fill-opacity:1;fill-rule:nonzero;stroke:none"
         transform="matrix(0.13333333,0,0,-0.13333333,0,2829.3333)" />
      <path
         id="path17"
         d="m 7421.25,15355.3 c 12.62,2.5 25.16,5.8 37.73,8.8 41.49,139.6 51.37,277.1 84.73,385 -139.22,-150.9 -301.41,-263 -479.02,-338.9 117.15,-78.2 222.19,-178.8 314.8,-292.5 15.78,-19.5 11.14,-42.7 -1.68,-57.7 49.57,-73.4 93.87,-152.8 131.45,-235.8 h 0.04 c 179.65,205.9 250.31,397.6 278.04,583.9 -110.39,-61.7 -225.78,-109.5 -343.9,-132.9 -52.39,-10.4 -74.69,69.7 -22.19,80.1"
         style="fill:#39363d;fill-opacity:1;fill-rule:nonzero;stroke:none"
         transform="matrix(0.13333333,0,0,-0.13333333,0,2829.3333)" />
      <path
         id="path18"
         d="m 11116.8,17780 c -98.3,-5.8 -175.9,-108.7 -251,-175 126.4,36.5 257,39.7 388.1,17.7 -26.5,80.5 -68.7,161.3 -137.1,157.3"
         style="fill:#39363d;fill-opacity:1;fill-rule:nonzero;stroke:none"
         transform="matrix(0.13333333,0,0,-0.13333333,0,2829.3333)" />
      <path
         id="path19"
         d="m 12287.2,15720.3 c -16.6,7.5 -35.4,14.4 -55.8,20.9 -75.6,-83.5 -156.3,-161.9 -242.3,-235.1 0.2,-11.1 0.4,-22.2 0.5,-33.3 0,-0.5 0.1,-1 0.1,-1.5 0,-3.3 0,-6.6 0,-9.9 0,-53.6 -83.1,-53.6 -83.1,0 0,96.6 -4.7,194.1 -11,291.8 -1.9,11.9 -3.7,23.7 -5.5,35.3 -19.4,0.1 -39,-0.1 -58.5,-0.8 -85.3,-3.1 -170.3,-14.4 -246.2,-35.5 -73.4,-45.6 -150.2,-86.9 -228.4,-133.8 -59.5,-77.1 -69.8,-184.1 2.2,-328 0,0 1313.6,-228.8 1236.1,137.5 -28.9,136.4 -191.2,239.3 -308.1,292.4"
         style="fill:#39363d;fill-opacity:1;fill-rule:nonzero;stroke:none"
         transform="matrix(0.13333333,0,0,-0.13333333,0,2829.3333)" />
      <path
         id="path20"
         d="m 8905.23,15760.8 c -130.5,-116.3 -286.13,-201.7 -476.56,-239.3 -52.34,-10.4 -74.69,69.8 -22.15,80.1 6.25,1.3 12.35,2.7 18.48,4.1 14.53,57.9 29.18,115.6 44.77,172.4 -92.82,-11.5 -175.2,-31.8 -232.7,-57.8 -17.77,-8.1 -36.56,-17.4 -55.78,-27.7 -64.14,-55.7 -132.07,-110.7 -203.05,-161.9 -23.75,-31.7 -41.48,-66 -49.29,-102.8 -77.54,-366.3 1236.09,-137.5 1236.09,-137.5 138.01,275.8 -26.21,416 -259.81,470.4"
         style="fill:#39363d;fill-opacity:1;fill-rule:nonzero;stroke:none"
         transform="matrix(0.13333333,0,0,-0.13333333,0,2829.3333)" />
      <path
         id="path21"
         d="m 11604.8,7017.4 c -287.2,271.8 -515.3,608.8 -782.7,899.8 -46.6,50.7 -94.3,111 -151.5,150.5 -16.3,11.2 -3.8,12.3 -25.4,-10.6 -29.8,-31.3 -55.8,-65.8 -80.2,-101.3 -88.6,-128.8 -168,-264.5 -243,-401.7 14,-923.8 27.9,-1847.6 41.8,-2771.5 14,-926.7 28,-1853.3 41.9,-2780 0.9,-53.7 -82.3,-53.6 -83.1,0 -1,67.8 -2,135.6 -3,203.4 -18.2,1204.4 -36.4,2408.8 -54.5,3613.2 -8.7,575.8 -17.4,1151.7 -26,1727.5 -0.4,0.9 -1,1.6 -1.3,2.4 -60.9,170.5 -123.5,366.5 -234.4,511.5 -20.94,27.3 -15.74,37.9 -35.94,22.7 -22.23,-16.5 -42.38,-36.5 -62.03,-56 -65.47,-65 -127.3,-133.6 -188.24,-202.8 -236.06,-268.1 -462.35,-545.2 -684.96,-824.5 -11.53,-14.4 -35.63,-15 -50.39,-6.5 -83.87,48.7 -169.46,96.4 -253.91,146 118.79,-772.1 237.58,-1544.3 356.13,-2316.5 102.78,-669.9 205.59,-1339.8 307.82,-2009.8 33.75,-220.9 67.42,-441.9 100.78,-662.8 13,-86.3 34.49,-175.8 38.63,-263.2 714.11,1.1 1439.41,7.8 2152.01,19.5 6.1,81.1 25.3,163.8 37.3,243.7 33.3,220.9 67.1,441.9 100.8,662.8 102.2,670 205,1339.9 307.9,2009.8 144.8,943.8 289.9,1887.5 435.1,2831.3 -283.5,-241.7 -572.8,-474.6 -909.2,-643.4 -17.3,-8.6 -36.1,-7 -50.4,6.5"
         style="fill:#cecccb;fill-opacity:1;fill-rule:nonzero;stroke:none"
         transform="matrix(0.13333333,0,0,-0.13333333,0,2829.3333)" />
      <path
         id="path22"
         d="m 11522,9613 v 0 -0.1 l 1,-130 3.7,-412.7 c -167.3,-181.1 -946.4,-385.8 -1222,-460.1 0.9,-3.3 1.5,-6.9 1.6,-10.8 1,-67.8 2.1,-135.6 3,-203.5 3.4,-224.9 6.8,-449.8 10.2,-674.8 66.7,117.4 137.7,232.9 219.6,339.2 28.2,36.8 80.8,112.7 137.7,97.1 47.6,-13.1 88.5,-60.7 121.6,-94.3 299.4,-303.7 537.1,-669.2 843.2,-965.5 440.2,227.4 799.3,564.2 1174.9,881.6 16,13.4 34.7,12.5 49.1,4.6 110.2,109.7 207.6,221.5 281.4,331.2 8.4,12.3 16.5,24.7 24.2,37 -9.9,16.7 -20.2,33.1 -30.5,49.7 C 12712.8,9089.1 12053.9,9613 11522,9613"
         style="fill:#cecccb;fill-opacity:1;fill-rule:nonzero;stroke:none"
         transform="matrix(0.13333333,0,0,-0.13333333,0,2829.3333)" />
      <path
         id="path23"
         d="m 9772.34,8009.3 c 78.32,83.5 189.61,241.1 293.76,105 71.2,-93 124.1,-204.5 169.2,-318.2 -4.1,267.7 -8.1,535.5 -12.1,803.2 -0.1,4 0.5,7.6 1.3,11 -270.75,74.5 -995.71,279 -1162.78,459.9 l -23.05,541.6 -0.04,1.1 c -533.32,0 -984.06,-553 -1613.63,-1360.1 -13.44,-17.3 -26.87,-34.5 -40.47,-52 7.46,-11.8 16.13,-24 25.9,-36.7 165.12,-213.6 649.02,-546.4 1040.39,-796.4 10,19.3 31.84,30.8 54.3,14.4 153.16,-111.8 323.01,-204.3 487.69,-299 251.1,315.1 503.95,632.3 779.53,926.2"
         style="fill:#cecccb;fill-opacity:1;fill-rule:nonzero;stroke:none"
         transform="matrix(0.13333333,0,0,-0.13333333,0,2829.3333)" />
      <path
         id="path24"
         d="m 7519.69,15847.5 c 264.72,317.8 413.47,728.1 496.6,1129.1 10.86,52.5 90.94,30.2 80.16,-22.1 -88.48,-426.8 -252.5,-879.5 -552.31,-1205 -0.19,-0.1 -0.31,-0.2 -0.43,-0.4 -33.36,-107.9 -43.24,-245.4 -84.73,-385 297.82,72.8 581.14,301.8 794.81,506 376.87,360.2 652.26,810.5 772.38,1319.8 12.31,52.1 92.42,30 80.16,-22.1 -91.72,-388.7 -273.4,-751.4 -521.99,-1062.2 -46.88,-100.5 -82.74,-211.9 -114.57,-327.5 -15.59,-56.8 -30.24,-114.5 -44.77,-172.4 354.34,78.3 617.15,375.8 772.27,691 190.46,387 320.89,803 505.93,1193.3 79.1,166.9 262.7,614.6 520.6,533.8 89.2,-28 135.1,-100 162.2,-185.9 27.8,-88.2 39.7,-211.3 139.2,-223 112.6,712.7 843.5,1311.1 1529.4,1434.1 -502.1,229.3 -1101.4,363.8 -1804.5,363.8 -535.26,0 -1005.22,-82.1 -1415.22,-226.2 -1877.77,-499.8 -2348.43,-2023.3 -2392.54,-3616.1 -1.79,-65.6 -2.81,-131.4 -3.24,-197.2 418.63,-3.2 808.4,147.5 1080.59,474.2"
         style="fill:#49464f;fill-opacity:1;fill-rule:nonzero;stroke:none"
         transform="matrix(0.13333333,0,0,-0.13333333,0,2829.3333)" />
      <path
         id="path25"
         d="m 12082.2,18970 c -650.6,-114.4 -1373,-684.1 -1475.7,-1367 230.3,-47.9 355.8,362.3 587.5,242 104.8,-54.4 146.3,-212.3 170.7,-316.5 60.2,-256 65.7,-525.4 50.9,-786.9 -15.8,-277.8 -54.3,-553.4 -108.2,-826.2 -16.6,-99.8 -35.6,-189 -56.4,-262.3 -9.6,-41.2 -19.4,-82.3 -29.5,-123.3 45.3,32.8 90.6,61.8 135.5,88.6 78.2,46.9 155,88.2 228.4,133.8 102.2,63.5 197.7,136.1 280.5,246.6 0,-52.4 11.3,-127.4 24.2,-210.3 1.8,-11.6 3.6,-23.4 5.5,-35.3 -9.1,140.3 -21.5,281.1 -28.8,419.9 -11.7,225 -37.2,447.6 -71.8,670.2 -55.5,357.8 -140,780.1 -475.4,981.4 -45.9,27.5 -4.1,99.4 42,71.7 337.3,-202.4 446,-609.6 504.5,-973.9 37.7,-234.4 69.2,-469.9 81.6,-707.1 12.3,-234.7 38.3,-474.3 41.4,-709.3 86,73.2 166.7,151.6 242.3,235.1 144.6,159.7 270.2,338.3 376.8,535.7 -63.4,294.9 -141.2,586.6 -247.9,867.2 -123.3,324.8 -336,824.1 -748.8,832.3 -53.6,1 -53.6,84.2 0,83.1 405.3,-8 637,-428.3 774.2,-756 216.2,-516.2 326,-1074.4 419.3,-1624.1 16,20.9 33.1,41.9 51.3,62.9 125.4,145.1 296.5,297.5 395.1,486.9 -190.4,521.7 -338.6,1084.2 -668.1,1535.9 -152.9,209.4 -358.7,389.6 -620.8,437.1 -343.9,62.5 -687.4,-85.5 -978.7,-254.3 -46.5,-27 -88.3,44.9 -41.9,71.7 409.5,237.4 937.4,417.4 1369.5,129.2 472.2,-315.1 675.2,-932.2 856.6,-1440.9 98.7,-276.5 188.9,-558.3 312.3,-825 87.1,-188.2 195.2,-404.3 385.4,-507.2 16,-8.6 21.6,-22.5 20.4,-36.3 2.1,-0.8 4,-1.8 6.2,-2.7 -8.2,43 -12.2,90.9 -13.2,141.1 -0.6,28.3 -0.2,57.4 0.9,86.8 6.8,171 39.3,350.4 59.1,445.8 -272.6,569.7 -444.8,1186.8 -790.5,1721 -177,273.5 -404.1,534.2 -710.1,664.6 -361.6,154.3 -755.3,92.7 -1111.7,-44.7 -50.1,-19.3 -71.6,61.1 -22.1,80.1 201.7,77.8 415.8,135.5 633.2,139.9 705.1,14.4 1162.5,-529.6 1460.1,-1107.6 160.9,-312.3 289.6,-639.3 421.7,-964.5 106.8,-262.8 211.6,-535.7 370.1,-773 3.4,1732.6 -743.5,2859 -1800.9,3223.5 -87.5,30.2 -171.7,49.8 -252.9,60.7 -9.2,4.6 -18.6,8.9 -27.9,13.3 9.4,-21.4 3.5,-48.6 -25.9,-53.7"
         style="fill:#49464f;fill-opacity:1;fill-rule:nonzero;stroke:none"
         transform="matrix(0.13333333,0,0,-0.13333333,0,2829.3333)" />
      <path
         id="path26"
         d="m 16354.1,7788 c -2,-4.7 -4.2,-9.4 -6.3,-14 -372.4,-817.4 -744.7,-1634.7 -1117.1,-2452.1 -22.1,-48.4 49.5,-90.7 71.8,-42 374.5,822.1 748.9,1644.1 1123.5,2466.1 2.1,4.7 3.1,9.4 3.7,14 0,0.6 0.2,1.2 0.2,1.8 2.6,40.9 -56,69.4 -75.8,26.2"
         style="fill:#321511;fill-opacity:1;fill-rule:nonzero;stroke:none"
         transform="matrix(0.13333333,0,0,-0.13333333,0,2829.3333)" />
      <path
         id="path27"
         d="m 12865.6,7983.7 c -14.4,7.9 -33.1,8.8 -49.1,-4.6 -375.6,-317.4 -734.7,-654.2 -1174.9,-881.6 -306.1,296.3 -543.8,661.8 -843.2,965.5 -33.1,33.6 -74,81.2 -121.6,94.3 -56.9,15.6 -109.5,-60.3 -137.7,-97.1 -81.9,-106.3 -152.9,-221.8 -219.6,-339.2 -3.4,225 -6.8,449.9 -10.2,674.8 -0.9,67.9 -2,135.7 -3,203.5 -0.1,3.9 -0.7,7.5 -1.6,10.8 -10.2,39 -71,39 -80.2,0.2 -0.8,-3.4 -1.4,-7 -1.3,-11 4,-267.7 8,-535.5 12.1,-803.2 -45.1,113.7 -98,225.2 -169.2,318.2 -104.15,136.1 -215.44,-21.5 -293.76,-105 -275.58,-293.9 -528.43,-611.1 -779.53,-926.2 -164.68,94.7 -334.53,187.2 -487.69,299 -22.46,16.4 -44.3,4.9 -54.3,-14.4 -9.26,-17.8 -8.28,-42.3 12.34,-57.4 55.67,-40.6 113.64,-78.6 172.7,-115.2 122.77,-798 245.51,-1596 368.05,-2394.2 101.95,-664.3 203.9,-1328.8 305.31,-1993.2 33.59,-220 67.11,-439.9 100.31,-659.9 9.85,-65 19.65,-129.9 29.3,-194.9 3.32,-22.7 9.3,-64.7 9.41,-65.8 0,-0.5 0.16,-1 0.2,-1.6 4.14,-51.7 85.39,-51.5 82.93,1.6 0,0 -0.08,0 -0.08,0.1 -4.14,87.4 -25.63,176.9 -38.63,263.2 -33.36,220.9 -67.03,441.9 -100.78,662.8 -102.23,670 -205.04,1339.9 -307.82,2009.8 -118.55,772.2 -237.34,1544.4 -356.13,2316.5 84.45,-49.6 170.04,-97.3 253.91,-146 14.76,-8.5 38.86,-7.9 50.39,6.5 222.61,279.3 448.9,556.4 684.96,824.5 60.94,69.2 122.77,137.8 188.24,202.8 19.65,19.5 39.8,39.5 62.03,56 20.2,15.2 15,4.6 35.94,-22.7 110.9,-145 173.5,-341 234.4,-511.5 0.3,-0.8 0.9,-1.5 1.3,-2.4 8.6,-575.8 17.3,-1151.7 26,-1727.5 18.1,-1204.4 36.3,-2408.8 54.5,-3613.2 1,-67.8 2,-135.6 3,-203.4 0.8,-53.6 84,-53.7 83.1,0 -13.9,926.7 -27.9,1853.3 -41.9,2780 -13.9,923.9 -27.8,1847.7 -41.8,2771.5 75,137.2 154.4,272.9 243,401.7 24.4,35.5 50.4,70 80.2,101.3 21.6,22.9 9.1,21.8 25.4,10.6 57.2,-39.5 104.9,-99.8 151.5,-150.5 267.4,-291 495.5,-628 782.7,-899.8 14.3,-13.5 33.1,-15.1 50.4,-6.5 336.4,168.8 625.7,401.7 909.2,643.4 -145.2,-943.8 -290.3,-1887.5 -435.1,-2831.3 -102.9,-669.9 -205.7,-1339.8 -307.9,-2009.8 -33.7,-220.9 -67.5,-441.9 -100.8,-662.8 -12,-79.9 -31.2,-162.6 -37.3,-243.7 -0.5,-6.5 -1.1,-13.1 -1.3,-19.6 -2.6,-53.1 78.7,-53.3 82.8,-1.6 0,0.6 0.2,1.1 0.2,1.6 0.1,1.1 6.1,43.1 9.5,65.8 9.6,65 19.3,129.9 29.2,194.9 34,225.5 68.4,451 102.9,676.5 102.8,673.5 206.1,1347 309.5,2020.5 147.3,959.5 294.8,1918.9 442.5,2878.3 0.6,4.2 0.5,8.1 0.1,11.9 72.1,61.9 144.1,123.9 216.7,185.3 24.9,21 12.7,50.9 -9.8,63.4"
         style="fill:#321511;fill-opacity:1;fill-rule:nonzero;stroke:none"
         transform="matrix(0.13333333,0,0,-0.13333333,0,2829.3333)" />
      <path
         id="path28"
         d="m 14363.2,5355 c -89.6,929.3 -179.3,1858.5 -269,2787.7 -0.2,2.3 -0.4,4.6 -0.6,6.8 -1.8,18 -11.3,35.7 -30.6,40 -307.4,70.8 -614.8,141.4 -922.3,212.1 10.3,-16.6 20.6,-33 30.5,-49.7 -7.7,-12.3 -15.8,-24.7 -24.2,-37 288.9,-66.4 577.8,-132.8 866.7,-199.2 87,-901.7 174,-1803.4 261,-2705.1 -121.5,32.7 -242.9,65.3 -364.4,97.9 -177,170.5 -354,341.1 -531,511.6 -38.6,37.2 -97.4,-21.6 -58.8,-58.8 179.8,-173.2 359.6,-346.4 539.3,-519.6 86.7,-96.5 173.5,-193.1 260.2,-289.6 47.6,-53 95.3,-106 142.9,-159.1 4.1,-4.5 8.2,-9 12.3,-13.6 -49.1,-164.2 -98.1,-328.4 -147.1,-492.6 -196.3,-657.5 -392.6,-1315 -588.9,-1972.5 -64.6,-216.4 -129.1,-432.7 -193.7,-649.1 -1.2,-3.8 -1.6,-7.4 -1.8,-10.9 -1.8,-43.4 67.8,-58.6 82,-11.2 1,3.7 2.2,7.5 3.2,11.2 302.4,1012.7 604.7,2025.4 907,3038.2 26,86.9 33,106.8 -31.8,178.9 -96.8,107.7 -193.6,215.5 -290.4,323.2 99,-26.6 197.9,-53.1 296.9,-79.6 24.2,-6.5 55.3,12.6 52.6,40"
         style="fill:#321511;fill-opacity:1;fill-rule:nonzero;stroke:none"
         transform="matrix(0.13333333,0,0,-0.13333333,0,2829.3333)" />
      <path
         id="path29"
         d="m 5277.27,6518.2 c -111.64,381.1 -219.85,765.2 -304.38,1153.4 -0.16,0.6 -0.39,1.1 -0.55,1.6 -12.81,50.1 -90.89,27.9 -79.64,-23.7 0.19,-0.8 0.39,-1.6 0.58,-2.4 84.45,-387.4 192.89,-770.5 303.83,-1150.9 167.23,-573.7 352.58,-1143.8 580,-1696.7 20.08,-48.8 100.55,-27.4 80.12,22.1 -227.43,553 -412.03,1123.2 -579.96,1696.6"
         style="fill:#321511;fill-opacity:1;fill-rule:nonzero;stroke:none"
         transform="matrix(0.13333333,0,0,-0.13333333,0,2829.3333)" />
      <path
         id="path30"
         d="m 7833.91,6020.1 c -176.96,-170.5 -353.95,-341.1 -530.94,-511.6 -121.49,-32.6 -242.97,-65.2 -364.45,-97.9 87.03,901.7 173.98,1803.4 261.01,2705.1 70.31,16.1 140.63,32.3 210.9,48.4 -9.77,12.7 -18.44,24.9 -25.9,36.7 13.6,17.5 27.03,34.7 40.47,52 -91.6,-21.1 -183.16,-42.2 -274.84,-63.3 -19.14,-4.3 -28.71,-22 -30.47,-40 -0.28,-2.7 -0.51,-5.4 -0.78,-8.1 -89.65,-928.8 -179.26,-1857.6 -268.87,-2786.4 -2.62,-27.4 28.44,-46.5 52.58,-40 99.02,26.5 197.97,53 296.95,79.6 -55,-61.2 -110.04,-122.4 -165.04,-183.7 -47.65,-53 -95.31,-106 -142.97,-159 -17.73,-19.8 -48.83,-43.9 -39.8,-73.9 43.28,-145 86.52,-289.8 129.8,-434.8 195.16,-653.8 390.35,-1307.6 585.55,-1961.4 72.42,-242.5 144.77,-485 217.15,-727.5 1.13,-3.7 2.26,-7.5 3.4,-11.2 14.1,-47.4 83.75,-32.2 81.87,11.2 -0.15,3.5 -0.62,7.1 -1.76,10.9 -303.43,1016.4 -606.91,2032.9 -910.35,3049.4 -6.4,21.6 -12.89,43.2 -19.33,64.8 16.83,18.7 33.67,37.5 50.46,56.2 121.61,135.4 243.25,270.7 364.89,406.1 179.72,173.2 359.49,346.4 539.29,519.6 38.64,37.2 -20.23,96 -58.82,58.8"
         style="fill:#321511;fill-opacity:1;fill-rule:nonzero;stroke:none"
         transform="matrix(0.13333333,0,0,-0.13333333,0,2829.3333)" />
      <path
         id="path31"
         d="m 13543.9,14424.5 c 222.7,249.8 512.6,453.2 734.4,195.4 35,-40.7 93.5,18.3 58.8,58.8 -240,278.8 -540.3,115.5 -782.9,-126.8 -2.8,-42.5 -6.2,-84.9 -10.3,-127.4"
         style="fill:#321511;fill-opacity:1;fill-rule:nonzero;stroke:none"
         transform="matrix(0.13333333,0,0,-0.13333333,0,2829.3333)" />
      <path
         id="path32"
         d="m 6950.08,14633.2 c 33.44,-35.7 64.26,-73.7 93.87,-112.8 -2,43.2 -3.44,86.7 -4.18,130.5 -197.07,225 -436.72,349.9 -696.45,72.5 -36.6,-39.1 22.07,-97.9 58.75,-58.7 80.04,85.4 176.72,159 299.96,136.7 99.88,-18 181.45,-97.2 248.05,-168.2"
         style="fill:#321511;fill-opacity:1;fill-rule:nonzero;stroke:none"
         transform="matrix(0.13333333,0,0,-0.13333333,0,2829.3333)" />
      <path
         id="path33"
         d="m 6422.42,15290.1 c 190.74,-3.3 374.61,23.8 545.94,82.7 133.05,-78.1 249.88,-188.1 352.38,-314 17.93,-22 42.62,-15.7 57.07,1.2 12.82,15 17.46,38.2 1.68,57.7 -92.61,113.7 -197.65,214.3 -314.8,292.5 177.61,75.9 339.8,188 479.02,338.9 0.12,0.2 0.24,0.3 0.43,0.4 299.81,325.5 463.83,778.2 552.31,1205 10.78,52.3 -69.3,74.6 -80.16,22.1 -83.13,-401 -231.88,-811.3 -496.6,-1129.1 -272.19,-326.7 -661.96,-477.4 -1080.59,-474.2 -5.55,0.1 -11.05,-0.2 -16.68,-0.1 -53.63,0.9 -53.51,-82.2 0,-83.1"
         style="fill:#321511;fill-opacity:1;fill-rule:nonzero;stroke:none"
         transform="matrix(0.13333333,0,0,-0.13333333,0,2829.3333)" />
      <path
         id="path34"
         d="m 14523,15541.5 c -135.3,46.2 -268.3,65.4 -396.7,61.2 -0.5,-0.1 -1.1,-0.1 -1.7,-0.1 -83.7,-2.9 -165.3,-15.9 -244.6,-38 -1.1,-29.4 -1.5,-58.5 -0.9,-86.8 192.7,58.7 402.4,58.5 621.9,-16.5 3.8,-1.3 7.6,-1.9 11.1,-2.1 42.5,-3 57.5,66.4 10.9,82.3"
         style="fill:#321511;fill-opacity:1;fill-rule:nonzero;stroke:none"
         transform="matrix(0.13333333,0,0,-0.13333333,0,2829.3333)" />
      <path
         id="path35"
         d="m 11242.2,13201.8 c 47.3,25.5 5.3,97.2 -41.9,71.8 -529.9,-285.6 -1267.33,-285.7 -1797.21,0 -47.19,25.4 -89.18,-46.3 -41.96,-71.8 556.29,-299.9 1324.77,-299.9 1881.07,0"
         style="fill:#321511;fill-opacity:1;fill-rule:nonzero;stroke:none"
         transform="matrix(0.13333333,0,0,-0.13333333,0,2829.3333)" />
      <path
         id="path36"
         d="m 8783.44,14674.4 c 35.11,59.5 21.87,141.1 -23.48,190.8 -56.6,62 -152.85,36.8 -201.52,-20.4 -2.74,-2.6 -5.31,-5.6 -7.54,-9.4 -3.28,-4.7 -5.24,-9.3 -6.37,-13.8 -28.48,-62.5 -15.86,-142.4 39.65,-186.3 64.65,-51.1 158.2,-30.4 199.26,39.1"
         style="fill:#321511;fill-opacity:1;fill-rule:nonzero;stroke:none"
         transform="matrix(0.13333333,0,0,-0.13333333,0,2829.3333)" />
      <path
         id="path37"
         d="m 11750.8,14844.8 c -2.7,-2.6 -5.3,-5.6 -7.5,-9.4 -3.3,-4.7 -5.3,-9.3 -6.4,-13.8 -28.5,-62.5 -15.8,-142.4 39.7,-186.3 64.6,-51.1 158.1,-30.4 199.2,39.1 35.1,59.5 21.9,141.1 -23.5,190.8 -56.6,62 -152.8,36.8 -201.5,-20.4"
         style="fill:#321511;fill-opacity:1;fill-rule:nonzero;stroke:none"
         transform="matrix(0.13333333,0,0,-0.13333333,0,2829.3333)" />
      <path
         id="path38"
         d="m 10379.1,14273 c 44.5,-30.3 86,41.7 42,71.8 -158.2,108.1 -402.2,2 -338.9,-208.7 38.6,-128.8 203.7,-144.8 315.4,-125 52.8,9.3 30.3,89.4 -22.1,80.1 -49.8,-8.8 -141.6,-9.4 -190.5,33.3 -45.9,40.2 -35.9,115.9 4.4,155 51.8,50.4 137.6,29.1 189.7,-6.5"
         style="fill:#321511;fill-opacity:1;fill-rule:nonzero;stroke:none"
         transform="matrix(0.13333333,0,0,-0.13333333,0,2829.3333)" />
      <path
         id="path39"
         d="m 12729.1,12269.8 c 18,21.7 10,48.4 -6.6,62.7 -14.7,12.6 -36.1,15.5 -52.2,-3.9 -611.7,-736.2 -1582.4,-963 -2501.3,-965.6 -15.2,-0.1 -26,-6.9 -32.6,-16.5 -16.6,-24.3 -5.8,-66.8 32.6,-66.7 441.2,1.3 894.9,53.9 1316.8,187.2 v 0 c 476.2,150.6 911.9,404 1243.3,802.8"
         style="fill:#321511;fill-opacity:1;fill-rule:nonzero;stroke:none"
         transform="matrix(0.13333333,0,0,-0.13333333,0,2829.3333)" />
      <path
         id="path40"
         d="m 10092.6,7736.7 c -54.7,30 -117.6,9.6 -144.05,-46.9 -0.93,-2 -1.56,-3.9 -2.26,-5.9 -0.66,-1.4 -1.33,-2.6 -1.91,-4.1 -28.87,-71.5 2.57,-147.4 78.72,-168.8 69.6,-19.6 139.8,28.9 147.1,99.2 5.4,51.2 -35.1,103.1 -77.6,126.5"
         style="fill:#321511;fill-opacity:1;fill-rule:nonzero;stroke:none"
         transform="matrix(0.13333333,0,0,-0.13333333,0,2829.3333)" />
      <path
         id="path41"
         d="m 10092.6,5744.3 c -54.7,30 -117.6,9.6 -144.05,-47 -0.93,-1.8 -1.56,-3.8 -2.26,-5.8 -0.66,-1.3 -1.33,-2.6 -1.91,-4.1 -28.87,-71.5 2.5,-147.4 78.72,-168.8 69.6,-19.6 139.8,28.9 147.1,99.1 5.4,51.3 -35.1,103.3 -77.6,126.6"
         style="fill:#321511;fill-opacity:1;fill-rule:nonzero;stroke:none"
         transform="matrix(0.13333333,0,0,-0.13333333,0,2829.3333)" />
      <path
         id="path42"
         d="m 10092.6,3967.5 c -54.7,30 -117.6,9.6 -144.05,-47 -0.93,-1.9 -1.56,-3.8 -2.26,-5.8 -0.66,-1.4 -1.33,-2.7 -1.91,-4.1 -28.87,-71.5 2.5,-147.4 78.72,-168.9 69.6,-19.5 139.8,29 147.1,99.2 5.4,51.2 -35.1,103.2 -77.6,126.6"
         style="fill:#321511;fill-opacity:1;fill-rule:nonzero;stroke:none"
         transform="matrix(0.13333333,0,0,-0.13333333,0,2829.3333)" />
      <path
         id="path43"
         d="m 10092.6,2190.6 c -54.7,30.1 -117.6,9.6 -144.05,-46.9 -0.93,-1.9 -1.56,-3.9 -2.26,-5.9 -0.66,-1.4 -1.33,-2.6 -1.91,-4 -28.87,-71.5 2.57,-147.4 78.72,-168.9 69.6,-19.6 139.8,29 147.1,99.2 5.4,51.2 -35.1,103.2 -77.6,126.5"
         style="fill:#321511;fill-opacity:1;fill-rule:nonzero;stroke:none"
         transform="matrix(0.13333333,0,0,-0.13333333,0,2829.3333)" />
      <path
         id="path44"
         d="m 6040.86,3045.9 c 0.86,-347.6 20.86,-695.7 38.63,-1042.7 2.66,-53.4 85.78,-53.6 83.13,0 -17.82,347 -37.78,695.1 -38.64,1042.7 -0.15,53.6 -83.28,53.6 -83.12,0"
         style="fill:#321511;fill-opacity:1;fill-rule:nonzero;stroke:none"
         transform="matrix(0.13333333,0,0,-0.13333333,0,2829.3333)" />
      <path
         id="path45"
         d="m 14698.9,3045.9 c 0,-386.3 0,-772.5 0,-1158.8 0,-4 0.6,-7.6 1.4,-11 10,-39.8 73.6,-38.8 80.9,3 0.4,2.5 0.8,5.1 0.8,8 0,386.3 0,772.5 0,1158.8 0,53.6 -83.1,53.6 -83.1,0"
         style="fill:#321511;fill-opacity:1;fill-rule:nonzero;stroke:none"
         transform="matrix(0.13333333,0,0,-0.13333333,0,2829.3333)" />
      <path
         id="path46"
         d="m 9699.88,8305.7 c 51.72,-14.5 73.6,65.7 22.11,80.2 -265.39,74.7 -498.71,239.8 -670.35,454.3 -134.8,168.5 -299.14,416.1 -276.48,641.6 5.35,53.3 -77.86,52.8 -83.17,0 -24.18,-241 144.42,-498.1 284.73,-679.5 182.03,-235.2 436.01,-415.7 723.16,-496.6"
         style="fill:#321511;fill-opacity:1;fill-rule:nonzero;stroke:none"
         transform="matrix(0.13333333,0,0,-0.13333333,0,2829.3333)" />
      <path
         id="path47"
         d="m 10715.4,8322.4 c -49.6,-19 -28.1,-99.4 22,-80.2 299.9,114.5 554.8,329.9 757.6,575.5 150.9,182.7 330,460.3 242.5,706.9 -17.8,50.2 -98.1,28.6 -80.2,-22.1 79.9,-225.2 -99.8,-479.2 -236.8,-645 -187.2,-226.7 -428.7,-429.5 -705.1,-535.1"
         style="fill:#321511;fill-opacity:1;fill-rule:nonzero;stroke:none"
         transform="matrix(0.13333333,0,0,-0.13333333,0,2829.3333)" />
      <path
         id="path48"
         d="m 8584.34,16105.6 c 248.59,310.8 430.27,673.5 521.99,1062.2 12.26,52.1 -67.85,74.2 -80.16,22.1 -120.12,-509.3 -395.51,-959.6 -772.38,-1319.8 -213.67,-204.2 -496.99,-433.2 -794.81,-506 -12.57,-3 -25.11,-6.3 -37.73,-8.8 -52.5,-10.4 -30.2,-90.5 22.19,-80.1 118.12,23.4 233.51,71.2 343.9,132.9 65.59,36.6 129.34,78.1 190.9,122.6 70.98,51.2 138.91,106.2 203.05,161.9 45.7,39.7 89.65,79.7 131.25,118.7 97.54,91.6 188.44,190 271.8,294.3"
         style="fill:#321511;fill-opacity:1;fill-rule:nonzero;stroke:none"
         transform="matrix(0.13333333,0,0,-0.13333333,0,2829.3333)" />
      <path
         id="path49"
         d="m 11989.1,15506.1 c -3.1,235 -29.1,474.6 -41.4,709.3 -12.4,237.2 -43.9,472.7 -81.6,707.1 -58.5,364.3 -167.2,771.5 -504.5,973.9 -46.1,27.7 -87.9,-44.2 -42,-71.7 335.4,-201.3 419.9,-623.6 475.4,-981.4 34.6,-222.6 60.1,-445.2 71.8,-670.2 7.3,-138.8 19.7,-279.6 28.8,-419.9 6.3,-97.7 11,-195.2 11,-291.8 0,-53.6 83.1,-53.6 83.1,0 0,3.3 0,6.6 0,9.9 0,0.5 -0.1,1 -0.1,1.5 -0.1,11.1 -0.3,22.2 -0.5,33.3"
         style="fill:#321511;fill-opacity:1;fill-rule:nonzero;stroke:none"
         transform="matrix(0.13333333,0,0,-0.13333333,0,2829.3333)" />
      <path
         id="path50"
         d="m 12809.3,15654.7 c -1.4,8.2 -2.9,16.5 -4.3,24.7 -93.3,549.7 -203.1,1107.9 -419.3,1624.1 -137.2,327.7 -368.9,748 -774.2,756 -53.6,1.1 -53.6,-82.1 0,-83.1 412.8,-8.2 625.5,-507.5 748.8,-832.3 106.7,-280.6 184.5,-572.3 247.9,-867.2 46.1,-214.1 84.7,-429.9 120.9,-644.3 8.9,-52.8 89.1,-30.3 80.2,22.1"
         style="fill:#321511;fill-opacity:1;fill-rule:nonzero;stroke:none"
         transform="matrix(0.13333333,0,0,-0.13333333,0,2829.3333)" />
      <path
         id="path51"
         d="m 13865.7,15375.7 c -190.2,102.9 -298.3,319 -385.4,507.2 -123.4,266.7 -213.6,548.5 -312.3,825 -181.4,508.7 -384.4,1125.8 -856.6,1440.9 -432.1,288.2 -960,108.2 -1369.5,-129.2 -46.4,-26.8 -4.6,-98.7 41.9,-71.7 291.3,168.8 634.8,316.8 978.7,254.3 262.1,-47.5 467.9,-227.7 620.8,-437.1 329.5,-451.7 477.7,-1014.2 668.1,-1535.9 14.9,-40.5 29.9,-80.9 45.3,-120.9 35.5,-92.2 73.8,-193.4 119,-293.3 23.7,-52.3 49.2,-104.3 77.4,-154.4 40.2,-71.7 85.7,-139.5 138.1,-199.2 -143,-80 -273.8,-191 -388.1,-326.6 -14.5,-17.1 -12.4,-37.6 -2.5,-52.5 13.5,-20.2 41.3,-29.9 61.3,-6.2 115,136.4 246.1,246.8 389.6,323.4 40.2,-37 84,-69.4 132.3,-95.5 31.2,-16.8 59.9,8.8 62.3,35.4 1.2,13.8 -4.4,27.7 -20.4,36.3"
         style="fill:#321511;fill-opacity:1;fill-rule:nonzero;stroke:none"
         transform="matrix(0.13333333,0,0,-0.13333333,0,2829.3333)" />
      <path
         id="path52"
         d="m 11304.7,18431.4 c -49.5,-19 -28,-99.4 22.1,-80.1 356.4,137.4 750.1,199 1111.7,44.7 306,-130.4 533.1,-391.1 710.1,-664.6 345.7,-534.2 517.9,-1151.3 790.5,-1721 20.4,-42.7 41.3,-85.3 63,-127.4 31.8,-61.9 66.3,-122.4 104.2,-180.8 6.9,-10.7 14,-21.3 21.1,-31.8 3.4,-4.9 6.5,-10 9.9,-14.8 30.4,-43.7 102.5,-2.2 71.8,41.9 -6.6,9.4 -12.9,19.1 -19.3,28.7 -158.5,237.3 -263.3,510.2 -370.1,773 -132.1,325.2 -260.8,652.2 -421.7,964.5 -297.6,578 -755,1122 -1460.1,1107.6 -217.4,-4.4 -431.5,-62.1 -633.2,-139.9"
         style="fill:#321511;fill-opacity:1;fill-rule:nonzero;stroke:none"
         transform="matrix(0.13333333,0,0,-0.13333333,0,2829.3333)" />
      <path
         id="path53"
         d="m 9652.81,17176.8 c 24.22,56.3 102.7,263.2 203.87,448.8 115.78,212.4 261.32,396.9 389.62,295.8 76.5,-60.3 75.8,-194.2 115.4,-277.3 12,-25.2 26.7,-45.9 43.7,-62.9 1.9,-2 3.8,-3.9 5.8,-5.8 0.1,-0.1 0.1,-0.1 0.1,-0.2 37,-33.9 84.6,-49.4 143,-43.9 101.2,-38.2 193.9,-13.2 280.3,48.6 10.4,7.4 20.8,16 31.2,25.1 75.1,66.3 152.7,169.2 251,175 68.4,4 110.6,-76.8 137.1,-157.3 17,-51.5 27.5,-102.9 34.3,-131.8 57.3,-243.4 56.7,-501 44.3,-749.3 -21.1,-420 -101.5,-836 -204.4,-1242.9 -13.2,-52 67,-74 80.1,-22.1 4.5,17.7 8.9,35.5 13.3,53.2 10.1,41 19.9,82.1 29.5,123.3 20.3,87.1 39.1,174.6 56.4,262.3 53.9,272.8 92.4,548.4 108.2,826.2 14.8,261.5 9.3,530.9 -50.9,786.9 -24.4,104.2 -65.9,262.1 -170.7,316.5 -231.7,120.3 -357.2,-289.9 -587.5,-242 102.7,682.9 825.1,1252.6 1475.7,1367 29.4,5.1 35.3,32.3 25.9,53.7 -7.5,17 -24.8,30.5 -48,26.4 -1.9,-0.3 -3.7,-0.7 -5.5,-1.1 -685.9,-123 -1416.8,-721.4 -1529.4,-1434.1 -99.5,11.7 -111.4,134.8 -139.2,223 -27.1,85.9 -73,157.9 -162.2,185.9 -257.9,80.8 -441.5,-366.9 -520.6,-533.8 -185.04,-390.3 -315.47,-806.3 -505.93,-1193.3 -155.12,-315.2 -417.93,-612.7 -772.27,-691 -6.13,-1.4 -12.23,-2.8 -18.48,-4.1 -52.54,-10.3 -30.19,-90.5 22.15,-80.1 190.43,37.6 346.06,123 476.56,239.3 388.52,346.1 553.87,965.8 747.58,1416"
         style="fill:#321511;fill-opacity:1;fill-rule:nonzero;stroke:none"
         transform="matrix(0.13333333,0,0,-0.13333333,0,2829.3333)" />
      <path
         id="path54"
         d="m 9893.36,18483.1 c -395,-87.1 -505.78,-449.2 -637.46,-783.9 -19.65,-49.9 60.74,-71.4 80.12,-22.1 110.27,280.2 194.61,603.1 512.46,707.6 213.52,70.2 597.62,91.7 696.42,-165.7 19,-49.5 99.4,-28 80.2,22.1 -110.8,288.8 -473.9,298.9 -731.74,242"
         style="fill:#321511;fill-opacity:1;fill-rule:nonzero;stroke:none"
         transform="matrix(0.13333333,0,0,-0.13333333,0,2829.3333)" />
      <path
         id="path55"
         d="m 8301.48,17315.9 c 178.48,616.8 520.2,1297.1 1148.44,1557 487.19,201.4 991.88,13.8 1310.98,-384.8 33.5,-41.9 92,17.3 58.8,58.7 -334.7,418.1 -860.68,606 -1372.4,413.9 -670.35,-251.8 -1039.17,-977.1 -1225.93,-1622.8 -14.96,-51.6 65.27,-73.5 80.11,-22"
         style="fill:#321511;fill-opacity:1;fill-rule:nonzero;stroke:none"
         transform="matrix(0.13333333,0,0,-0.13333333,0,2829.3333)" />
      <path
         id="path56"
         d="m 6639.65,15810.7 c 456.17,332.3 675.51,857.4 874.61,1366.5 204.33,522.3 407.46,1103.8 898.55,1426.4 44.65,29.3 3.05,101.3 -41.87,71.7 -983.09,-645.7 -832.35,-2107.4 -1773.24,-2792.8 -42.9,-31.2 -1.49,-103.4 41.95,-71.8"
         style="fill:#321511;fill-opacity:1;fill-rule:nonzero;stroke:none"
         transform="matrix(0.13333333,0,0,-0.13333333,0,2829.3333)" />
      <path
         id="path57"
         d="m 10641.7,19242.2 c 218.1,-85.9 343.9,-280.4 392.1,-503 11.4,-52.3 91.5,-30.1 80.1,22.1 -54.9,253.5 -204.7,464.5 -450.1,561 -49.9,19.7 -71.4,-60.7 -22.1,-80.1"
         style="fill:#321511;fill-opacity:1;fill-rule:nonzero;stroke:none"
         transform="matrix(0.13333333,0,0,-0.13333333,0,2829.3333)" />
    </g>
  </g>
</svg>
